<svg width="320" height="325" viewBox="0 0 320 325" fill="none" xmlns="http://www.w3.org/2000/svg">
<ellipse cx="159.5" cy="166" rx="143.5" ry="144" fill="#EEEEEE" stroke="#160E46" stroke-width="29"/>
<path d="M63.296 192.328C57.664 192.328 53.6533 190.749 51.264 187.592C48.8747 184.349 47.68 179.571 47.68 173.256C47.68 166.856 50.368 148.808 55.744 119.112L48.96 105.416C58.6027 99.1867 67.392 96.072 75.328 96.072C81.8987 96.072 85.184 100.083 85.184 108.104C85.184 110.493 83.52 120.477 80.192 138.056C76.9493 155.635 75.328 166.813 75.328 171.592H89.152C95.6373 170.653 102.165 168.989 108.736 166.6C109.248 168.136 109.504 170.227 109.504 172.872C109.504 177.907 108.011 182.387 105.024 186.312C102.123 190.237 98.0693 192.2 92.864 192.2C89.3653 192.2 83.3067 191.261 74.688 189.384C71.104 191.347 67.3067 192.328 63.296 192.328Z" fill="#100939"/>
<path d="M146.04 192.64L141.96 184.24C147.667 180.453 152.813 178.56 157.4 178.56C161.24 178.56 163.16 180.72 163.16 185.04C163.16 186.267 162.413 190.027 160.92 196.32C159.48 202.56 158.76 207.333 158.76 210.64C158.76 213.947 159.48 216.4 160.92 218C157.933 220.187 154.813 221.28 151.56 221.28C148.307 221.28 145.987 220.213 144.6 218.08C143.267 215.947 142.6 212.827 142.6 208.72C139.72 209.573 136.733 210 133.64 210C126.387 210 120.52 207.76 116.04 203.28C111.613 198.8 109.4 192.187 109.4 183.44C109.4 179.707 110.2 175.92 111.8 172.08C113.4 168.187 115.667 164.587 118.6 161.28C121.533 157.973 125.347 155.28 130.04 153.2C134.787 151.067 139.667 150 144.68 150C149.747 150 153.693 150.933 156.52 152.8C159.4 154.667 160.84 157.253 160.84 160.56C160.84 163.867 159.747 166.453 157.56 168.32C155.427 170.133 152.973 171.04 150.2 171.04C147.427 171.04 144.92 170.453 142.68 169.28C140.493 168.053 138.733 166.32 137.4 164.08C134.52 165.467 132.04 168.187 129.96 172.24C127.88 176.293 126.84 180.533 126.84 184.96C126.84 189.387 127.693 192.72 129.4 194.96C131.16 197.147 133.347 198.24 135.96 198.24C139.747 198.24 143.107 196.373 146.04 192.64ZM191.214 210C183.908 210 178.254 208.107 174.254 204.32C170.308 200.533 168.334 195.413 168.334 188.96C168.334 180.373 171.268 173.413 177.134 168.08C183.054 162.693 190.468 160 199.374 160C204.334 160 208.094 161.12 210.654 163.36C213.214 165.547 214.494 168.453 214.494 172.08C214.494 177.04 212.068 181.173 207.214 184.48C202.414 187.733 194.974 189.387 184.894 189.44C185.054 192.853 185.828 195.547 187.214 197.52C188.601 199.44 190.334 200.4 192.414 200.4C194.494 200.4 196.281 199.707 197.774 198.32C199.321 196.933 200.094 194.667 200.094 191.52C207.881 191.52 211.774 193.36 211.774 197.04C211.774 200.187 209.854 203.147 206.014 205.92C202.174 208.64 197.241 210 191.214 210ZM198.014 169.36C195.294 169.36 192.788 170.72 190.494 173.44C188.254 176.16 186.628 179.36 185.614 183.04C190.948 182.613 194.948 181.413 197.614 179.44C200.334 177.413 201.694 175.28 201.694 173.04C201.694 171.973 201.348 171.093 200.654 170.4C200.014 169.707 199.134 169.36 198.014 169.36ZM230.913 210C227.766 210 225.446 209.173 223.953 207.52C222.459 205.867 221.713 203.68 221.713 200.96C221.713 198.24 222.246 193.813 223.313 187.68C224.433 181.547 225.579 175.947 226.753 170.88L222.592 164.48C227.873 161.493 232.753 160 237.233 160C241.713 160 243.953 162.027 243.953 166.08C243.953 168.747 243.339 171.467 242.113 174.24L242.913 174.64C248.619 164.88 255.873 160 264.673 160C271.126 160 274.353 163.227 274.353 169.68C274.353 172.453 273.553 177.147 271.953 183.76C270.406 190.373 269.633 195.36 269.633 198.72C269.633 202.08 270.193 204.533 271.313 206.08C268.486 208.693 265.499 210 262.353 210C256.219 210 253.153 206.693 253.153 200.08C253.153 197.627 253.953 193.467 255.553 187.6C257.153 181.733 257.953 177.92 257.953 176.16C257.953 173.76 257.046 172.56 255.233 172.56C253.739 172.56 252.033 173.227 250.113 174.56C248.193 175.84 246.326 177.6 244.513 179.84C242.753 182.027 241.259 184.827 240.033 188.24C238.806 191.6 238.193 195.04 238.193 198.56C238.193 202.027 238.753 204.533 239.873 206.08C237.046 208.693 234.059 210 230.913 210Z" fill="#100939"/>
</svg>
