<svg width="320" height="325" viewBox="0 0 320 325" fill="none" xmlns="http://www.w3.org/2000/svg">
<ellipse cx="159.5" cy="166" rx="143.5" ry="144" fill="#EEEEEE" stroke="#160E46" stroke-width="29"/>
<path d="M123.712 160.792C124.992 160.792 125.632 162.243 125.632 165.144C125.632 171.203 122.816 177.091 117.184 182.808C111.552 188.44 104.683 191.299 96.576 191.384C90.8587 191.384 84.2453 189.123 76.736 184.6C71.36 190.317 64.6613 193.176 56.64 193.176C51.3493 193.176 47.4667 191.853 44.992 189.208C42.5173 186.563 41.28 183.064 41.28 178.712C41.28 174.36 42.8587 171.117 46.016 168.984C49.2587 166.765 53.3547 165.656 58.304 165.656C60.9493 165.656 63.424 165.784 65.728 166.04C65.728 155.629 66.88 145.475 69.184 135.576C66.368 134.125 63.936 132.504 61.888 130.712C59.9253 128.92 58.944 127.512 58.944 126.488C58.944 123.757 59.5413 122.392 60.736 122.392C62.4427 122.392 64.192 122.904 65.984 123.928C67.8613 124.867 69.8667 125.592 72 126.104C77.2907 110.829 84.544 100.973 93.76 96.536C97.0027 95 100.416 94.232 104 94.232C117.483 94.232 124.224 99.9067 124.224 111.256C124.224 117.741 121.792 123.331 116.928 128.024C110.187 134.509 99.9467 137.923 86.208 138.264C85.2693 145.432 84.8 153.923 84.8 163.736C84.8 166.125 84.5013 168.813 83.904 171.8C86.8907 173.336 89.792 174.744 92.608 176.024C95.424 177.304 98.88 177.944 102.976 177.944C105.109 177.944 107.2 177.048 109.248 175.256C111.381 173.464 113.344 171.501 115.136 169.368C117.013 167.235 118.677 165.272 120.128 163.48C121.579 161.688 122.773 160.792 123.712 160.792ZM103.744 106.776C96.576 106.776 91.3707 113.603 88.128 127.256C94.272 126.744 99.4347 125.037 103.616 122.136C107.883 119.149 110.016 116.163 110.016 113.176C110.016 108.909 107.925 106.776 103.744 106.776ZM53.696 179.608C53.7813 181.997 55.4453 183.192 58.688 183.192C61.9307 183.192 63.9787 181.315 64.832 177.56C62.4427 176.365 60.48 175.768 58.944 175.768C55.5307 175.768 53.7813 177.048 53.696 179.608Z" fill="#100939"/>
<path d="M143.672 167.784C141.112 174.056 139.832 179.912 139.832 185.352C139.832 190.728 140.92 194.696 143.096 197.256C145.336 199.816 148.92 201.096 153.848 201.096C156.792 201.096 159.384 200.04 161.624 197.928C162.328 192.68 162.904 189.192 163.352 187.464C164.44 183.24 166.104 181.128 168.344 181.128C170.136 181.128 171.832 182.376 173.432 184.872C175.032 187.304 175.8 189.384 175.736 191.112C175.736 193.992 174.584 199.336 172.28 207.144C176.76 203.752 181.912 198.728 187.736 192.072C188.568 191.112 189.272 190.632 189.848 190.632C190.744 190.632 191.192 191.688 191.192 193.8C191.192 197.896 189.144 202.28 185.048 206.952C180.952 211.56 175.512 215.24 168.728 217.992C168.216 219.208 167.8 220.36 167.48 221.448C167.16 222.536 166.744 223.848 166.232 225.384C165.72 226.92 164.824 228.584 163.544 230.376C162.264 232.232 160.664 233.8 158.744 235.08C154.648 237.896 149.944 239.304 144.632 239.304C139.384 239.304 134.968 238.12 131.384 235.752C127.864 233.448 126.104 230.248 126.104 226.152C126.104 224.168 127.064 222.536 128.984 221.256C130.904 219.976 133.4 218.856 136.472 217.896C139.544 217 143 216.2 146.84 215.496C150.68 214.792 154.52 213.992 158.36 213.096C158.872 211.624 159.256 210.248 159.512 208.968C157.016 210.888 153.944 211.848 150.296 211.848C142.68 211.848 136.696 210.28 132.344 207.144C127.288 203.496 124.76 197.8 124.76 190.056C124.76 179.944 127.32 170.344 132.44 161.256C130.904 159.464 129.656 157.608 128.696 155.688C127.736 153.704 127.256 152.2 127.256 151.176C127.256 149.384 127.896 148.52 129.176 148.584C130.008 148.584 130.968 149.096 132.056 150.12C133.144 151.144 134.008 152.008 134.648 152.712C135.352 153.416 136.088 154.056 136.856 154.632C140.184 150.408 144.088 146.984 148.568 144.36C153.048 141.736 157.976 140.424 163.352 140.424C168.728 140.424 172.92 141.416 175.928 143.4C178.936 145.384 180.44 148.84 180.44 153.768C180.44 158.696 178.52 162.792 174.68 166.056C170.904 169.32 165.624 170.952 158.84 170.952C154.168 170.952 149.112 169.896 143.672 167.784ZM146.84 161.256C150.36 162.792 154.616 163.56 159.608 163.56C162.68 163.56 165.144 162.728 167 161.064C168.856 159.4 169.784 157.608 169.784 155.688C169.784 153.704 169.144 152.264 167.864 151.368C166.648 150.408 165.016 149.928 162.968 149.928C156.824 149.928 151.448 153.704 146.84 161.256ZM143.576 231.912C147.928 231.912 151.736 228.648 155 222.12C151.48 223.016 148.504 223.72 146.072 224.232C143.64 224.744 141.656 225.192 140.12 225.576C138.648 225.96 137.56 226.344 136.856 226.728C136.216 227.112 135.896 227.656 135.896 228.36C135.896 229.576 136.696 230.44 138.296 230.952C139.96 231.528 141.72 231.848 143.576 231.912ZM208.748 202.536C213.74 202.536 218.572 200.552 223.244 196.584C224.972 195.112 226.38 193.768 227.468 192.552C228.556 191.272 229.388 190.632 229.964 190.632C230.86 190.632 231.308 191.528 231.308 193.32C231.308 195.112 230.828 197.128 229.868 199.368C228.908 201.544 227.308 203.688 225.068 205.8C219.564 210.984 212.012 213.576 202.412 213.576C194.796 213.576 189.612 210.824 186.86 205.32C185.9 203.4 185.42 200.648 185.42 197.064C185.42 193.48 186.124 189.768 187.532 185.928C188.94 182.024 190.796 178.664 193.1 175.848C195.468 173.032 198.188 170.856 201.26 169.32C204.332 167.72 207.596 166.92 211.052 166.92C214.572 166.92 217.26 167.784 219.116 169.512C221.036 171.24 221.996 173.48 221.996 176.232C221.996 178.984 221.292 181.256 219.884 183.048C218.54 184.776 216.78 186.248 214.604 187.464C212.428 188.616 209.996 189.672 207.308 190.632C204.684 191.528 202.092 192.552 199.532 193.704V196.104C199.596 198.408 200.556 200.04 202.412 201C204.268 201.96 206.38 202.472 208.748 202.536ZM207.116 175.464C203.788 175.464 201.484 179.336 200.204 187.08C201.548 186.184 202.796 185.384 203.948 184.68C205.164 183.976 206.22 183.304 207.116 182.664C209.036 181.256 210.028 179.656 210.092 177.864C210.092 176.264 209.1 175.464 207.116 175.464ZM239.273 165.096C241.577 165.096 243.753 167.304 245.801 171.72C248.809 168.584 252.521 167.016 256.937 167.016C261.417 167.016 264.777 168.008 267.017 169.992C269.257 171.912 270.377 174.664 270.377 178.248C270.377 181.768 269.897 185.352 268.937 189C268.041 192.648 267.369 195.272 266.921 196.872C266.537 198.408 266.345 199.688 266.345 200.712C266.345 201.736 266.697 202.248 267.401 202.248C268.361 202.248 269.545 201.64 270.953 200.424C272.361 199.208 273.769 197.896 275.177 196.488C276.585 195.016 277.865 193.672 279.017 192.456C280.233 191.24 281.065 190.632 281.513 190.632C282.409 190.632 282.857 191.72 282.857 193.896C282.857 198.376 280.649 202.696 276.233 206.856C268.809 211.208 264.073 213.384 262.025 213.384C261.833 213.384 261.705 213.352 261.641 213.288C256.521 213.288 253.961 209.192 253.961 201C253.961 197.48 254.281 194.248 254.921 191.304C255.625 188.36 256.137 186.216 256.457 184.872C256.777 183.528 256.937 182.152 256.937 180.744C256.937 178.44 255.593 177.288 252.905 177.288C250.281 177.288 247.753 179.272 245.321 183.24C242.953 187.144 241.353 191.208 240.521 195.432V196.104C240.521 198.28 240.841 200.52 241.481 202.824C242.185 205.128 242.537 206.728 242.537 207.624C242.537 209.8 239.817 211.944 234.377 214.056C233.545 214.376 232.809 214.536 232.169 214.536C230.569 214.536 229.449 213.704 228.809 212.04C228.233 210.376 227.945 207.784 227.945 204.264C227.945 195.176 228.297 188.616 229.001 184.584C229.961 178.568 232.137 172.968 235.529 167.784C236.681 165.992 237.929 165.096 239.273 165.096Z" fill="#100939"/>
</svg>
